<svg width="100" height="101" viewBox="0 0 100 101" fill="none" xmlns="http://www.w3.org/2000/svg">
<g id="Icon/Party">
<circle id="Ellipse 144" cx="50" cy="50" r="49.25" stroke="#E0156A" stroke-width="1.5"/>
<g id="Group 39474">
<g id="Group 39467">
<path id="Polygon 1" d="M24.6327 76.9374L24.8831 77.6443C24.2091 77.883 23.5594 77.2334 23.7981 76.5593L24.5051 76.8097L23.7981 76.5593L36.4353 40.8761C36.644 40.287 37.3956 40.1169 37.8376 40.5588L60.8836 63.6049C61.3255 64.0468 61.1555 64.7985 60.5663 65.0071M24.6327 76.9374L60.5663 65.0071M24.6327 76.9374L24.8831 77.6443L60.5663 65.0071M24.6327 76.9374L60.5663 65.0071M60.0656 63.5932L60.205 63.9869L60.0656 63.5932L60.0647 63.5935C60.065 63.5934 60.0653 63.5933 60.0656 63.5932Z" stroke="#E0156A" stroke-width="1.5"/>
<path id="Line 1" d="M55.6641 66.6578L34.8203 45.814" stroke="#E0156A" stroke-width="1.5"/>
<line id="Line 2" x1="32.249" y1="74.8508" x2="26.5921" y2="69.194" stroke="#E0156A" stroke-width="1.5"/>
<path id="Line 3" d="M38.2041 72.816L28.6769 63.2888" stroke="#E0156A" stroke-width="1.5"/>
<path id="Line 4" d="M44.2344 70.6434L30.7994 57.2084" stroke="#E0156A" stroke-width="1.5"/>
<path id="Line 5" d="M49.8906 68.5221L32.9201 51.5515" stroke="#E0156A" stroke-width="1.5"/>
</g>
<path id="Vector 1" d="M44.5547 23C46.5442 28.5335 45.9588 31.7241 43.0547 37.5" stroke="#E0156A" stroke-width="1.5" stroke-linecap="round"/>
<path id="Vector 3" d="M77.599 53.166C71.9565 51.5102 68.8067 52.285 63.2143 55.5287" stroke="#E0156A" stroke-width="1.5" stroke-linecap="round"/>
<path id="Vector 2" d="M49.0547 43C57.3649 35.1852 60.2345 30.6264 62.0547 22" stroke="#E0156A" stroke-width="1.5" stroke-linecap="round"/>
<path id="Vector 4" d="M56.6991 50.5526C63.3996 41.3204 67.5586 37.897 75.8854 35" stroke="#E0156A" stroke-width="1.5" stroke-linecap="round"/>
<g id="Group 39468">
<path id="Vector 5" d="M71.0547 44H77.0547" stroke="#E0156A" stroke-width="1.5" stroke-linecap="round"/>
<path id="Vector 6" d="M74.0547 47V41" stroke="#E0156A" stroke-width="1.5" stroke-linecap="round"/>
</g>
<g id="Group 39470">
<path id="Vector 5_2" d="M66.2217 61.2009L69.8886 62.799" stroke="#E0156A" stroke-width="1.5" stroke-linecap="round"/>
<path id="Vector 6_2" d="M67.2559 63.8334L68.8539 60.1665" stroke="#E0156A" stroke-width="1.5" stroke-linecap="round"/>
</g>
<g id="Group 39472">
<path id="Vector 5_3" d="M54.6543 42.3756L57.4054 43.5745" stroke="#E0156A" stroke-width="1.5" stroke-linecap="round"/>
<path id="Vector 6_3" d="M55.4307 44.3505L56.6296 41.5994" stroke="#E0156A" stroke-width="1.5" stroke-linecap="round"/>
</g>
<g id="Group 39473">
<path id="Vector 5_4" d="M68.6543 26.3756L71.4054 27.5745" stroke="#E0156A" stroke-width="1.5" stroke-linecap="round"/>
<path id="Vector 6_4" d="M69.4307 28.3505L70.6296 25.5994" stroke="#E0156A" stroke-width="1.5" stroke-linecap="round"/>
</g>
<g id="Group 39471">
<path id="Vector 5_5" d="M33.8535 30.8335L37.5204 32.4315" stroke="#E0156A" stroke-width="1.5" stroke-linecap="round"/>
<path id="Vector 6_5" d="M34.8877 33.4659L36.4858 29.799" stroke="#E0156A" stroke-width="1.5" stroke-linecap="round"/>
</g>
<g id="Group 39469">
<path id="Vector 5_6" d="M50.0547 23H56.0547" stroke="#E0156A" stroke-width="1.5" stroke-linecap="round"/>
<path id="Vector 6_6" d="M53.0547 26V20" stroke="#E0156A" stroke-width="1.5" stroke-linecap="round"/>
</g>
<circle id="Ellipse 146" cx="63.0547" cy="35" r="1" fill="#E0156A"/>
<circle id="Ellipse 147" cx="50.0547" cy="35" r="1" fill="#E0156A"/>
<circle id="Ellipse 148" cx="64.0547" cy="50" r="1" fill="#E0156A"/>
</g>
</g>
</svg>
