<svg width="48" height="48" viewBox="0 0 48 48" fill="none" xmlns="http://www.w3.org/2000/svg">
<g id="Social Media Icon Square/Instagram">
<rect id="Social Media Icon" width="48" height="48" rx="8" fill="#F9D0E1"/>
<path id="Instagram" fill-rule="evenodd" clip-rule="evenodd" d="M12 24C12 19.2065 12 16.8097 13.1423 15.0834C13.6523 14.3125 14.3125 13.6523 15.0834 13.1423C16.8097 12 19.2065 12 24 12C28.7935 12 31.1903 12 32.9166 13.1423C33.6875 13.6523 34.3477 14.3125 34.8577 15.0834C36 16.8097 36 19.2065 36 24C36 28.7935 36 31.1903 34.8577 32.9166C34.3477 33.6875 33.6875 34.3477 32.9166 34.8577C31.1903 36 28.7935 36 24 36C19.2065 36 16.8097 36 15.0834 34.8577C14.3125 34.3477 13.6523 33.6875 13.1423 32.9166C12 31.1903 12 28.7935 12 24ZM30.2123 24.0003C30.2123 27.4314 27.4309 30.2128 23.9998 30.2128C20.5687 30.2128 17.7872 27.4314 17.7872 24.0003C17.7872 20.5692 20.5687 17.7878 23.9998 17.7878C27.4309 17.7878 30.2123 20.5692 30.2123 24.0003ZM23.9998 28.111C26.27 28.111 28.1105 26.2706 28.1105 24.0003C28.1105 21.73 26.27 19.8896 23.9998 19.8896C21.7295 19.8896 19.8891 21.73 19.8891 24.0003C19.8891 26.2706 21.7295 28.111 23.9998 28.111ZM30.4577 18.9354C31.2639 18.9354 31.9175 18.2818 31.9175 17.4756C31.9175 16.6694 31.2639 16.0159 30.4577 16.0159C29.6515 16.0159 28.9979 16.6694 28.9979 17.4756C28.9979 18.2818 29.6515 18.9354 30.4577 18.9354Z" fill="#E0156A"/>
</g>
</svg>
