<svg width="48" height="48" viewBox="0 0 48 48" fill="none" xmlns="http://www.w3.org/2000/svg">
<g id="Social Media Icon Square/YouTube">
<g id="Group 73">
<rect id="Social Media Icon" width="48" height="48" rx="8" fill="#F9D0E1"/>
<path id="YouTube" d="M24.5847 33.3066L19.1684 33.2053C17.4148 33.1701 15.6567 33.2405 13.9375 32.875C11.322 32.329 11.1367 29.6518 10.9429 27.4062C10.6757 24.249 10.7791 21.0346 11.2833 17.9038C11.5679 16.1472 12.6879 15.0989 14.42 14.9849C20.2672 14.5709 26.1532 14.62 31.9874 14.8131C32.6035 14.8308 33.2239 14.9276 33.8315 15.0377C36.8306 15.5749 36.9037 18.6088 37.0981 21.1627C37.292 23.743 37.2101 26.3366 36.8396 28.8993C36.5423 31.0212 35.9734 32.8006 33.5729 32.9723C30.5653 33.197 27.6266 33.3778 24.6105 33.3202C24.6106 33.3066 24.5933 33.3066 24.5847 33.3066ZM21.4004 27.9346C23.667 26.6047 25.8903 25.297 28.1439 23.976C25.8731 22.6462 23.654 21.3384 21.4004 20.0175V27.9346Z" fill="#E0156A"/>
</g>
</g>
</svg>
